<svg width="77" height="48" viewBox="0 0 77 48" fill="none" xmlns="http://www.w3.org/2000/svg">
<path fill-rule="evenodd" clip-rule="evenodd" d="M52.7977 35.2114C52.1391 34.3656 51.3579 33.3022 50.4529 32.0182C49.5845 30.6695 48.7386 29.4143 47.9152 28.253L38.4358 14.2882L15.2419 47.1248L0 47.1335L29.8342 5.00829L29.837 5.00436C30.7781 3.70416 31.9733 2.52706 33.4336 1.47616C34.7662 0.517219 36.4977 0.00126843 38.6991 2.23861e-06C40.8044 -0.00120863 42.4669 0.488829 43.7545 1.40149L43.7694 1.41203L43.7846 1.42202C45.2159 2.36012 46.4236 3.54327 47.4113 4.9782L76.5422 47.0895L24.2225 47.1196L31.7908 36.693L47.8925 36.6837C49.463 36.6828 50.8062 36.7297 51.9262 36.8224L54.1986 37.0104L52.7977 35.2114Z" fill="#F3F3F6"/>
</svg>
