<svg width="63" height="47" viewBox="0 0 63 47" fill="none" xmlns="http://www.w3.org/2000/svg">
<path fill-rule="evenodd" clip-rule="evenodd" d="M13.5603 34.4917L13.5674 46.8417L0.689569 46.8491L0.676514 24.1491L41.2766 24.1257C43.7152 24.1243 45.7496 23.592 47.2412 22.3894C48.7859 21.1833 49.5685 19.5421 49.5673 17.5598C49.5662 15.5804 48.7829 13.9567 47.2266 12.7978C45.7344 11.6021 43.7027 11.0743 41.2691 11.0757L1.72913 11.0984L10.0428 0.526943L39.8908 0.509773C43.567 0.50766 46.8103 0.953716 49.6331 1.83116L49.6403 1.83338L49.6475 1.8355C52.4861 2.67137 54.8472 3.84586 56.7536 5.34196C58.6618 6.83951 60.1036 8.62109 61.0946 10.6902C62.0845 12.7569 62.5882 15.0627 62.5896 17.6246C62.5911 20.1848 62.0907 22.4899 61.1044 24.5568C60.1213 26.5691 58.6657 28.3009 56.7162 29.7535L56.7072 29.7603C54.8002 31.215 52.4364 32.3711 49.5933 33.2119C46.7667 34.0477 43.5187 34.4745 39.8381 34.4766L13.5603 34.4917Z" fill="#F3F3F6"/>
</svg>
