<svg width="63" height="47" viewBox="0 0 63 47" fill="none" xmlns="http://www.w3.org/2000/svg">
<path fill-rule="evenodd" clip-rule="evenodd" d="M45.5417 19.7957C51.3638 19.7923 55.6241 20.8828 58.4654 22.9225L58.4739 22.9285C61.2407 24.8715 62.6741 27.8329 62.6765 32.0025C62.6779 34.3532 62.3105 36.4423 61.593 38.2841C60.8888 40.0918 59.7691 41.6106 58.2192 42.852C56.6662 44.0959 54.6329 45.0801 52.0824 45.7772L52.0779 45.7785C49.5901 46.4711 46.5559 46.8285 42.9572 46.8306L0 46.8553L8.05308 36.4284L44.1068 36.4077C45.9439 36.4066 47.4837 36.1407 48.5495 35.4502L48.5664 35.4393L48.5829 35.4276C49.7329 34.6149 50.2328 33.3511 50.232 31.8652C50.2311 30.383 49.7299 29.1199 48.5454 28.3544C47.4789 27.6652 45.9387 27.401 44.1016 27.4021L17.8126 27.4172C14.7503 27.419 12.1549 27.0902 10.0087 26.4522C7.84203 25.8082 6.0875 24.9233 4.71606 23.8186C3.34525 22.7144 2.34082 21.4019 1.68495 19.8761C1.01884 18.2782 0.678537 16.5104 0.677416 14.5604C0.676182 12.4146 1.03954 10.5044 1.74888 8.81466C2.49871 7.09427 3.62042 5.63879 5.12686 4.43971C6.68453 3.23806 8.69885 2.27665 11.202 1.57953C13.7406 0.885918 16.8003 0.528825 20.3972 0.526756L60.3354 0.503784L52.2646 11.0751L19.2477 11.0941C17.4545 11.0952 15.9506 11.3394 14.8625 11.9447L14.8518 11.9507L14.8412 11.9569C13.6211 12.6756 13.1215 13.9421 13.1224 15.4199C13.1233 16.9021 13.6245 18.1653 14.809 18.9307L14.8372 18.949L14.8666 18.9653C15.9554 19.5693 17.4596 19.8118 19.2527 19.8108L45.5417 19.7957Z" fill="#F3F3F6"/>
</svg>
