<svg width="60" height="47" viewBox="0 0 60 47" fill="none" xmlns="http://www.w3.org/2000/svg">
<path fill-rule="evenodd" clip-rule="evenodd" d="M28.0926 0.0183189L59.9419 0L51.8711 10.5713L28.0987 10.585C25.9804 10.5862 23.9949 10.8902 22.1496 11.5064C20.3137 12.1196 18.7093 12.9952 17.3524 14.1427C15.9936 15.2435 14.9197 16.5824 14.1363 18.1514C13.3406 19.7452 12.9493 21.489 12.9504 23.366C12.9515 25.2325 13.3163 26.9672 14.0583 28.5549L14.067 28.5734L14.0763 28.5914C14.8646 30.1133 15.942 31.424 17.2996 32.5192L17.3067 32.525L17.314 32.5306C18.7134 33.6177 20.3336 34.4618 22.1632 35.0705L22.1751 35.0745L22.1872 35.0782C24.0258 35.6388 26.0033 35.9141 28.1133 35.9129L59.9482 35.8946L51.8951 46.3214L28.1193 46.3351C24.031 46.3375 20.268 45.729 16.8219 44.5204C13.3613 43.3067 10.3889 41.6569 7.89089 39.5793C5.44172 37.4544 3.50377 34.9649 2.07085 32.106C0.694381 29.2163 0.00194229 26.0932 4.0791e-06 22.7234C-0.00193559 19.3511 0.687888 16.3049 2.05438 13.5668C3.48187 10.7549 5.41327 8.36131 7.854 6.37877L7.85563 6.37744C10.3448 4.34684 13.3086 2.7889 16.7626 1.71318L16.7743 1.70939C20.2259 0.587738 23.9962 0.020675 28.0926 0.0183189Z" fill="#F3F3F6"/>
</svg>
